
<svg version="1.1" id="Capa_1" xmlns="http://www.w3.org/2000/svg" xmlns:xlink="http://www.w3.org/1999/xlink" x="0px" y="0px"
	 viewBox="0 0 496 496" style="enable-background:new 0 0 496 496;" xml:space="preserve">
<g>
	<g>
		<g>
			<path fill="#293449" d="M184,144v16.408c-17.952,2.016-32,17.112-32,35.592c0,19.848,16.152,36,36,36h8c11.024,0,20,8.976,20,20
				c0,11.032-8.976,20-20,20h-8c-11.024,0-20-8.968-20-20v-4h-16v4c0,18.48,14.048,33.576,32,35.592V304h16v-16.408
				c17.952-2.016,32-17.112,32-35.592c0-19.848-16.152-36-36-36h-8c-11.024,0-20-8.976-20-20s8.976-20,20-20h8
				c11.024,0,20,8.976,20,20v4h16v-4c0-18.48-14.048-33.576-32-35.592V144H184z"/>
			<path fill="#293449" d="M16,392v-24h128v-16H0v40c0,22.056,17.944,40,40,40h264v-16H40C26.768,416,16,405.232,16,392z"/>
			<path fill="#293449" d="M160,376c0,13.232,10.768,24,24,24h120v-16H184c-4.408,0-8-3.584-8-8v-8h128v-16H160V376z"/>
			<rect x="48" y="384" width="16" height="16"/>
			<rect x="80" y="384" width="16" height="16"/>
			<rect x="112" y="384" width="16" height="16"/>
			<path fill="#293449" d="M32,40c0-13.232,10.768-24,24-24h384c13.232,0,24,10.768,24,24v224h16V40c0-22.056-17.944-40-40-40H56
				C33.944,0,16,17.944,16,40v296h16V40z"/>
			<path fill="#293449" d="M448,248V48c0-8.824-7.176-16-16-16H64c-8.824,0-16,7.176-16,16v288h16V48h368v200H448z"/>
			<path fill="#293449" d="M416,256.408V88c0-13.232-10.768-24-24-24H208c-13.232,0-24,10.768-24,24v24.408C125.976,116.536,80,164.944,80,224
				c0,61.76,50.24,112,112,112s112-50.24,112-112c0-59.056-45.976-107.464-104-111.592V88c0-4.408,3.592-8,8-8h184
				c4.408,0,8,3.592,8,8v168.408c-44.784,4.056-80,41.768-80,87.592v64c0,48.52,39.48,88,88,88c48.52,0,88-39.48,88-88v-64
				C496,298.176,460.784,260.464,416,256.408z M288,224c0,52.936-43.064,96-96,96c-52.936,0-96-43.064-96-96
				c0-52.936,43.064-96,96-96C244.936,128,288,171.064,288,224z M408,272c36.992,0,67.536,28.056,71.528,64H432v-8
				c0-13.232-10.768-24-24-24s-24,10.768-24,24v8h-47.528C340.464,300.056,371.008,272,408,272z M416,328v32c0,4.416-3.592,8-8,8
				c-4.408,0-8-3.584-8-8v-32c0-4.416,3.592-8,8-8C412.408,320,416,323.584,416,328z M480,408c0,39.704-32.304,72-72,72
				c-39.696,0-72-32.296-72-72v-56h48v8c0,13.232,10.768,24,24,24s24-10.768,24-24v-8h48V408z"/>
		</g>
	</g>
</g>
<g>
</g>
<g>
</g>
<g>
</g>
<g>
</g>
<g>
</g>
<g>
</g>
<g>
</g>
<g>
</g>
<g>
</g>
<g>
</g>
<g>
</g>
<g>
</g>
<g>
</g>
<g>
</g>
<g>
</g>
</svg>
