<svg xmlns="http://www.w3.org/2000/svg" xmlns:xlink="http://www.w3.org/1999/xlink"><symbol id="browser" viewBox="0 0 448 448">
<path style="fill:#f4f3f3;" d="M352,352H32c-13.6,0-24-10.4-24-24V112h368v216C376,341.6,365.6,352,352,352z"/>
<path style="fill:#f4f3f3;" d="M376,112H8V56c0-13.6,10.4-24,24-24h320c13.6,0,24,10.4,24,24V112z"/>
<path style="fill:#f4f3f3;" d="M336,416c-57.6,0-104-46.4-104-104s46.4-104,104-104s104,46.4,104,104S393.6,416,336,416z"/>
<g>
	<circle style="fill:#293449;" cx="176" cy="72" r="16"/>
	<circle style="fill:#293449;" cx="112" cy="72" r="16"/>
	<circle style="fill:#293449;" cx="48" cy="72" r="16"/>
	<path style="fill:#293449;" d="M384,211.2V56c0-17.6-14.4-32-32-32H32C14.4,24,0,38.4,0,56v272c0,17.6,14.4,32,32,32h203.2
		c17.6,37.6,56.8,64,100.8,64c61.6,0,112-50.4,112-112C448,267.2,421.6,228.8,384,211.2z M16,56c0-9.6,6.4-16,16-16h320
		c9.6,0,16,6.4,16,16v48H16V56z M32,344c-9.6,0-16-6.4-16-16V120h352v84.8c-10.4-3.2-20.8-4.8-32-4.8c-9.6,0-18.4,1.6-27.2,3.2
		l-52-52l-11.2,11.2l46.4,46.4c-40,16.8-68,56.8-68,103.2c0,11.2,1.6,21.6,4.8,32H32z M336,408c-52.8,0-96-43.2-96-96s43.2-96,96-96
		s96,43.2,96,96S388.8,408,336,408z"/>

		<rect x="96.367" y="222.875" transform="matrix(-0.2588 0.9659 -0.9659 -0.2588 465.1578 104.8167)" style="fill:#293449;" width="191.994" height="16"/>
	<polygon style="fill:#293449;" points="138.4,163.2 127.2,152 48,230.4 127.2,310.4 138.4,298.4 70.4,230.4 	"/>
	<polygon style="fill:#293449;" points="320,332.8 293.6,306.4 282.4,317.6 320,355.2 389.6,285.6 378.4,274.4 	"/>
</g>
<g>
</g>
<g>
</g>
<g>
</g>
<g>
</g>
<g>
</g>
<g>
</g>
<g>
</g>
<g>
</g>
<g>
</g>
<g>
</g>
<g>
</g>
<g>
</g>
<g>
</g>
<g>
</g>
<g>
</g>
</symbol><symbol id="clock" viewBox="0 0 511.992 511.992">
<g id="XMLID_806_">
	<g id="XMLID_386_">
		<path fill="#293449" id="XMLID_389_" d="M511.005,279.646c-4.597-46.238-25.254-89.829-58.168-122.744    c-28.128-28.127-62.556-46.202-98.782-54.239V77.255c14.796-3.681,25.794-17.074,25.794-32.993c0-18.748-15.252-34-34-34h-72    c-18.748,0-34,15.252-34,34c0,15.918,10.998,29.311,25.793,32.993v25.479c-36.115,8.071-70.429,26.121-98.477,54.169    c-6.138,6.138-11.798,12.577-16.979,19.269c-0.251-0.019-0.502-0.038-0.758-0.038H78.167c-5.522,0-10,4.477-10,10s4.478,10,10,10    h58.412c-7.332,12.275-13.244,25.166-17.744,38.436H10c-5.522,0-10,4.477-10,10s4.478,10,10,10h103.184    c-2.882,12.651-4.536,25.526-4.963,38.437H64c-5.522,0-10,4.477-10,10s4.478,10,10,10h44.54    c0.844,12.944,2.925,25.82,6.244,38.437H50c-5.522,0-10,4.477-10,10s4.478,10,10,10h71.166    c9.81,25.951,25.141,50.274,45.999,71.132c32.946,32.946,76.582,53.608,122.868,58.181c6.606,0.652,13.217,0.975,19.819,0.975    c39.022,0,77.548-11.293,110.238-32.581c4.628-3.014,5.937-9.209,2.923-13.837s-9.209-5.937-13.837-2.923    c-71.557,46.597-167.39,36.522-227.869-23.957c-70.962-70.962-70.962-186.425,0-257.388c70.961-70.961,186.424-70.961,257.387,0    c60.399,60.4,70.529,156.151,24.086,227.673c-3.008,4.632-1.691,10.826,2.94,13.833c4.634,3.008,10.826,1.691,13.833-2.941    C504.367,371.396,515.537,325.241,511.005,279.646z M259.849,44.263c0-7.72,6.28-14,14-14h72c7.72,0,14,6.28,14,14s-6.28,14-14,14    h-1.794h-68.413h-1.793C266.129,58.263,259.849,51.982,259.849,44.263z M285.642,99.296V78.263h48.413v20.997    C317.979,97.348,301.715,97.36,285.642,99.296z"/>
		<path fill="#293449" id="XMLID_391_" d="M445.77,425.5c-2.64,0-5.21,1.07-7.069,2.93c-1.87,1.86-2.931,4.44-2.931,7.07    c0,2.63,1.061,5.21,2.931,7.07c1.859,1.87,4.43,2.93,7.069,2.93c2.63,0,5.2-1.06,7.07-2.93c1.86-1.86,2.93-4.44,2.93-7.07    c0-2.63-1.069-5.21-2.93-7.07C450.97,426.57,448.399,425.5,445.77,425.5z"/>
		<path fill="#293449" id="XMLID_394_" d="M310.001,144.609c-85.538,0-155.129,69.59-155.129,155.129s69.591,155.129,155.129,155.129    s155.129-69.59,155.129-155.129S395.539,144.609,310.001,144.609z M310.001,434.867c-74.511,0-135.129-60.619-135.129-135.129    s60.618-135.129,135.129-135.129S445.13,225.228,445.13,299.738S384.512,434.867,310.001,434.867z"/>
		<path fill="#293449" id="XMLID_397_" d="M373.257,222.34l-49.53,49.529c-4.142-2.048-8.801-3.205-13.726-3.205c-4.926,0-9.584,1.157-13.726,3.205    l-22.167-22.167c-3.906-3.905-10.236-3.905-14.143,0c-3.905,3.905-3.905,10.237,0,14.142l22.167,22.167    c-2.049,4.142-3.205,8.801-3.205,13.726c0,17.134,13.939,31.074,31.074,31.074s31.074-13.94,31.074-31.074    c0-4.925-1.157-9.584-3.205-13.726l48.076-48.076v0l1.453-1.453c3.905-3.905,3.905-10.237,0-14.142    S377.164,218.435,373.257,222.34z M310.001,310.812c-6.106,0-11.074-4.968-11.074-11.074s4.968-11.074,11.074-11.074    s11.074,4.968,11.074,11.074S316.107,310.812,310.001,310.812z"/>
		<path fill="#293449" id="XMLID_398_" d="M416.92,289.86h-9.265c-5.522,0-10,4.477-10,10s4.478,10,10,10h9.265c5.522,0,10-4.477,10-10    S422.442,289.86,416.92,289.86z"/>
		<path fill="#293449" id="XMLID_399_" d="M212.346,289.616h-9.264c-5.522,0-10,4.477-10,10s4.478,10,10,10h9.264c5.522,0,10-4.477,10-10    S217.868,289.616,212.346,289.616z"/>
		<path fill="#293449" id="XMLID_400_" d="M310.123,212.083c5.522,0,10-4.477,10-10v-9.264c0-5.523-4.478-10-10-10s-10,4.477-10,10v9.264    C300.123,207.606,304.601,212.083,310.123,212.083z"/>
		<path fill="#293449" id="XMLID_424_" d="M309.879,387.393c-5.522,0-10,4.477-10,10v9.264c0,5.523,4.478,10,10,10s10-4.477,10-10v-9.264    C319.879,391.87,315.401,387.393,309.879,387.393z"/>
		<path fill="#293449" id="XMLID_425_" d="M10,351.44c-2.63,0-5.21,1.07-7.07,2.93c-1.86,1.86-2.93,4.44-2.93,7.07c0,2.64,1.069,5.21,2.93,7.07    s4.44,2.93,7.07,2.93s5.21-1.07,7.069-2.93c1.86-1.86,2.931-4.44,2.931-7.07s-1.07-5.21-2.931-7.07    C15.21,352.51,12.63,351.44,10,351.44z"/>
	</g>
</g>















</symbol><symbol id="facebook" viewBox="0 0 96.124 96.123">
<g>
	<path fill="#ffffff" d="M72.089,0.02L59.624,0C45.62,0,36.57,9.285,36.57,23.656v10.907H24.037c-1.083,0-1.96,0.878-1.96,1.961v15.803
		c0,1.083,0.878,1.96,1.96,1.96h12.533v39.876c0,1.083,0.877,1.96,1.96,1.96h16.352c1.083,0,1.96-0.878,1.96-1.96V54.287h14.654
		c1.083,0,1.96-0.877,1.96-1.96l0.006-15.803c0-0.52-0.207-1.018-0.574-1.386c-0.367-0.368-0.867-0.575-1.387-0.575H56.842v-9.246
		c0-4.444,1.059-6.7,6.848-6.7l8.397-0.003c1.082,0,1.959-0.878,1.959-1.96V1.98C74.046,0.899,73.17,0.022,72.089,0.02z"/>
</g>
<g>
</g>
<g>
</g>
<g>
</g>
<g>
</g>
<g>
</g>
<g>
</g>
<g>
</g>
<g>
</g>
<g>
</g>
<g>
</g>
<g>
</g>
<g>
</g>
<g>
</g>
<g>
</g>
<g>
</g>
</symbol><symbol id="individual" viewBox="0 0 496 496">
<g>
	<g>
		<g>
			<path fill="#293449" d="M435.264,338.44C448.824,310.368,456,279.344,456,248s-7.176-62.368-20.736-90.44C470.08,148.896,496,117.456,496,80
				c0-44.112-35.888-80-80-80c-37.512,0-68.992,25.992-77.592,60.88c-6.232-3.008-12.608-5.736-19.176-8.128
				C314.728,22.944,289.008,0,257.968,0h-19.936c-31.04,0-56.76,22.944-61.256,52.752c-6.568,2.392-12.944,5.128-19.176,8.128
				C148.992,25.992,117.512,0,80,0C35.888,0,0,35.888,0,80c0,37.456,25.92,68.896,60.736,77.56C47.176,185.632,40,216.656,40,248
				s7.176,62.368,20.736,90.44C25.92,347.104,0,378.544,0,416c0,44.112,35.888,80,80,80c37.472,0,68.92-25.936,77.568-60.776
				c3.384,1.624,6.88,3.152,10.432,4.632V496h160v-56.144c3.552-1.48,7.048-3,10.432-4.632C347.08,470.064,378.528,496,416,496
				c44.112,0,80-35.888,80-80C496,378.544,470.08,347.104,435.264,338.44z M416,16c35.288,0,64,28.712,64,64s-28.712,64-64,64
				c-35.288,0-64-28.712-64-64S380.712,16,416,16z M192,62.032C192,36.648,212.648,16,238.032,16h19.936
				C283.352,16,304,36.648,304,62.032v3.096c-4.344-3.664-8.248-7.92-11.536-12.856C287.344,44.584,278.784,40,269.544,40h-43.096
				c-9.232,0-17.8,4.584-23.184,12.68c-3.128,4.696-6.968,8.856-11.264,12.464V62.032z M192,84.568
				c9.784-5.768,18.304-13.6,24.864-23.44C219,57.92,222.584,56,226.456,56h43.096c3.864,0,7.456,1.92,9.872,5.552
				c6.312,9.464,14.8,17.256,24.576,23.016V88c0,30.872-25.128,56-56,56s-56-25.128-56-56V84.568z M274.76,160
				c-6.064,5.504-16.512,11.44-26.76,15.456c-10.248-4.008-20.704-9.952-26.76-15.456H274.76z M16,80c0-35.288,28.712-64,64-64
				s64,28.712,64,64s-28.712,64-64,64S16,115.288,16,80z M80,480c-35.288,0-64-28.712-64-64c0-35.288,28.712-64,64-64
				s64,28.712,64,64C144,451.288,115.288,480,80,480z M168,422.48c-2.8-1.272-5.464-2.632-8.128-4.008
				c0.024-0.824,0.128-1.64,0.128-2.472c0-44.112-35.888-80-80-80c-0.84,0-1.656,0.104-2.496,0.128C63.48,309.016,56,278.68,56,248
				s7.48-61.016,21.504-88.128C78.344,159.896,79.16,160,80,160c44.112,0,80-35.888,80-80c0-0.816-0.096-1.608-0.12-2.424
				c5.224-2.704,10.6-5.152,16.12-7.384V88c0,22.608,10.496,42.792,26.84,56H192c-39.704,0-72,32.296-72,72v80
				c0,26.472,21.528,48,48,48V422.48z M168,328c-17.648,0-32-14.352-32-32v-64h32V328z M240,480h-56v-16h56V480z M312,480h-56v-16
				h56V480z M312,448h-56v-88h-16v88h-56v-80.808c18.232-3.72,32-19.872,32-39.192h64c0,19.312,13.768,35.472,32,39.192V448z
				 M184,350.528V328h16C200,338.416,193.288,347.216,184,350.528z M312,350.528c-9.288-3.312-16-12.112-16-22.528h16V350.528z
				 M312,200v112H184V200h-16v16h-32c0-30.872,25.128-56,56-56h9.656c7.36,17.672,37.024,29.16,43.648,31.528l2.696,0.976
				l2.696-0.968c6.616-2.368,36.288-13.856,43.648-31.528H304c30.872,0,56,25.128,56,56h-32V216v-16H312z M360,232v64
				c0,17.648-14.352,32-32,32v-96H360z M336.128,418.472c-2.664,1.376-5.328,2.736-8.128,4.008V344c26.472,0,48-21.528,48-48v-80
				c0-39.704-32.296-72-72-72h-10.84C309.504,130.792,320,110.608,320,88V70.192c5.52,2.232,10.896,4.688,16.12,7.384
				C336.096,78.392,336,79.184,336,80c0,44.112,35.888,80,80,80c0.84,0,1.656-0.104,2.496-0.128C432.52,186.984,440,217.32,440,248
				s-7.48,61.016-21.504,88.128C417.656,336.104,416.84,336,416,336c-44.112,0-80,35.888-80,80
				C336,416.832,336.104,417.648,336.128,418.472z M416,480c-35.288,0-64-28.712-64-64c0-35.288,28.712-64,64-64
				c35.288,0,64,28.712,64,64C480,451.288,451.288,480,416,480z"/>
			<rect x="40" y="40" width="80" height="16"/>
			<rect x="40" y="72" width="80" height="16"/>
			<rect x="104" y="104" width="16" height="16"/>
			<rect x="40" y="104" width="48" height="16"/>
			<rect x="376" y="40" width="80" height="16"/>
			<rect x="376" y="72" width="80" height="16"/>
			<rect x="440" y="104" width="16" height="16"/>
			<rect x="376" y="104" width="48" height="16"/>
			<rect x="40" y="376" width="80" height="16"/>
			<rect x="40" y="408" width="80" height="16"/>
			<rect x="104" y="440" width="16" height="16"/>
			<rect x="40" y="440" width="48" height="16"/>
			<rect x="376" y="376" width="80" height="16"/>
			<rect x="376" y="408" width="80" height="16"/>
			<rect x="440" y="440" width="16" height="16"/>
			<rect x="376" y="440" width="48" height="16"/>
		</g>
	</g>
</g>
<g>
</g>
<g>
</g>
<g>
</g>
<g>
</g>
<g>
</g>
<g>
</g>
<g>
</g>
<g>
</g>
<g>
</g>
<g>
</g>
<g>
</g>
<g>
</g>
<g>
</g>
<g>
</g>
<g>
</g>
</symbol><symbol id="instagram" viewBox="0 0 169.063 169.063">
<g>
	<path fill="#ffffff" d="M122.406,0H46.654C20.929,0,0,20.93,0,46.655v75.752c0,25.726,20.929,46.655,46.654,46.655h75.752
		c25.727,0,46.656-20.93,46.656-46.655V46.655C169.063,20.93,148.133,0,122.406,0z M154.063,122.407
		c0,17.455-14.201,31.655-31.656,31.655H46.654C29.2,154.063,15,139.862,15,122.407V46.655C15,29.201,29.2,15,46.654,15h75.752
		c17.455,0,31.656,14.201,31.656,31.655V122.407z"/>
	<path fill="#ffffff" d="M84.531,40.97c-24.021,0-43.563,19.542-43.563,43.563c0,24.02,19.542,43.561,43.563,43.561s43.563-19.541,43.563-43.561
		C128.094,60.512,108.552,40.97,84.531,40.97z M84.531,113.093c-15.749,0-28.563-12.812-28.563-28.561
		c0-15.75,12.813-28.563,28.563-28.563s28.563,12.813,28.563,28.563C113.094,100.281,100.28,113.093,84.531,113.093z"/>
	<path fill="#ffffff" d="M129.921,28.251c-2.89,0-5.729,1.17-7.77,3.22c-2.051,2.04-3.23,4.88-3.23,7.78c0,2.891,1.18,5.73,3.23,7.78
		c2.04,2.04,4.88,3.22,7.77,3.22c2.9,0,5.73-1.18,7.78-3.22c2.05-2.05,3.22-4.89,3.22-7.78c0-2.9-1.17-5.74-3.22-7.78
		C135.661,29.421,132.821,28.251,129.921,28.251z"/>
</g>
<g>
</g>
<g>
</g>
<g>
</g>
<g>
</g>
<g>
</g>
<g>
</g>
<g>
</g>
<g>
</g>
<g>
</g>
<g>
</g>
<g>
</g>
<g>
</g>
<g>
</g>
<g>
</g>
<g>
</g>
</symbol><symbol id="online-shop" viewBox="0 0 496 496">
<g>
	<g>
		<g>
			<path fill="#293449" d="M184,144v16.408c-17.952,2.016-32,17.112-32,35.592c0,19.848,16.152,36,36,36h8c11.024,0,20,8.976,20,20
				c0,11.032-8.976,20-20,20h-8c-11.024,0-20-8.968-20-20v-4h-16v4c0,18.48,14.048,33.576,32,35.592V304h16v-16.408
				c17.952-2.016,32-17.112,32-35.592c0-19.848-16.152-36-36-36h-8c-11.024,0-20-8.976-20-20s8.976-20,20-20h8
				c11.024,0,20,8.976,20,20v4h16v-4c0-18.48-14.048-33.576-32-35.592V144H184z"/>
			<path fill="#293449" d="M16,392v-24h128v-16H0v40c0,22.056,17.944,40,40,40h264v-16H40C26.768,416,16,405.232,16,392z"/>
			<path fill="#293449" d="M160,376c0,13.232,10.768,24,24,24h120v-16H184c-4.408,0-8-3.584-8-8v-8h128v-16H160V376z"/>
			<rect x="48" y="384" width="16" height="16"/>
			<rect x="80" y="384" width="16" height="16"/>
			<rect x="112" y="384" width="16" height="16"/>
			<path fill="#293449" d="M32,40c0-13.232,10.768-24,24-24h384c13.232,0,24,10.768,24,24v224h16V40c0-22.056-17.944-40-40-40H56
				C33.944,0,16,17.944,16,40v296h16V40z"/>
			<path fill="#293449" d="M448,248V48c0-8.824-7.176-16-16-16H64c-8.824,0-16,7.176-16,16v288h16V48h368v200H448z"/>
			<path fill="#293449" d="M416,256.408V88c0-13.232-10.768-24-24-24H208c-13.232,0-24,10.768-24,24v24.408C125.976,116.536,80,164.944,80,224
				c0,61.76,50.24,112,112,112s112-50.24,112-112c0-59.056-45.976-107.464-104-111.592V88c0-4.408,3.592-8,8-8h184
				c4.408,0,8,3.592,8,8v168.408c-44.784,4.056-80,41.768-80,87.592v64c0,48.52,39.48,88,88,88c48.52,0,88-39.48,88-88v-64
				C496,298.176,460.784,260.464,416,256.408z M288,224c0,52.936-43.064,96-96,96c-52.936,0-96-43.064-96-96
				c0-52.936,43.064-96,96-96C244.936,128,288,171.064,288,224z M408,272c36.992,0,67.536,28.056,71.528,64H432v-8
				c0-13.232-10.768-24-24-24s-24,10.768-24,24v8h-47.528C340.464,300.056,371.008,272,408,272z M416,328v32c0,4.416-3.592,8-8,8
				c-4.408,0-8-3.584-8-8v-32c0-4.416,3.592-8,8-8C412.408,320,416,323.584,416,328z M480,408c0,39.704-32.304,72-72,72
				c-39.696,0-72-32.296-72-72v-56h48v8c0,13.232,10.768,24,24,24s24-10.768,24-24v-8h48V408z"/>
		</g>
	</g>
</g>
<g>
</g>
<g>
</g>
<g>
</g>
<g>
</g>
<g>
</g>
<g>
</g>
<g>
</g>
<g>
</g>
<g>
</g>
<g>
</g>
<g>
</g>
<g>
</g>
<g>
</g>
<g>
</g>
<g>
</g>
</symbol><symbol id="telegram" viewBox="0 0 300 300">
<g id="XMLID_496_">
	<path fill="#ffffff" id="XMLID_497_" d="M5.299,144.645l69.126,25.8l26.756,86.047c1.712,5.511,8.451,7.548,12.924,3.891l38.532-31.412
		c4.039-3.291,9.792-3.455,14.013-0.391l69.498,50.457c4.785,3.478,11.564,0.856,12.764-4.926L299.823,29.22
		c1.31-6.316-4.896-11.585-10.91-9.259L5.218,129.402C-1.783,132.102-1.722,142.014,5.299,144.645z M96.869,156.711l135.098-83.207
		c2.428-1.491,4.926,1.792,2.841,3.726L123.313,180.87c-3.919,3.648-6.447,8.53-7.163,13.829l-3.798,28.146
		c-0.503,3.758-5.782,4.131-6.819,0.494l-14.607-51.325C89.253,166.16,91.691,159.907,96.869,156.711z"/>
</g>
<g>
</g>
<g>
</g>
<g>
</g>
<g>
</g>
<g>
</g>
<g>
</g>
<g>
</g>
<g>
</g>
<g>
</g>
<g>
</g>
<g>
</g>
<g>
</g>
<g>
</g>
<g>
</g>
<g>
</g>
</symbol><symbol id="vk" viewBox="0 0 548.358 548.358">
<g>
	<path fill="#ffffff" d="M545.451,400.298c-0.664-1.431-1.283-2.618-1.858-3.569c-9.514-17.135-27.695-38.167-54.532-63.102l-0.567-0.571
		l-0.284-0.28l-0.287-0.287h-0.288c-12.18-11.611-19.893-19.418-23.123-23.415c-5.91-7.614-7.234-15.321-4.004-23.13
		c2.282-5.9,10.854-18.36,25.696-37.397c7.807-10.089,13.99-18.175,18.556-24.267c32.931-43.78,47.208-71.756,42.828-83.939
		l-1.701-2.847c-1.143-1.714-4.093-3.282-8.846-4.712c-4.764-1.427-10.853-1.663-18.278-0.712l-82.224,0.568
		c-1.332-0.472-3.234-0.428-5.712,0.144c-2.475,0.572-3.713,0.859-3.713,0.859l-1.431,0.715l-1.136,0.859
		c-0.952,0.568-1.999,1.567-3.142,2.995c-1.137,1.423-2.088,3.093-2.848,4.996c-8.952,23.031-19.13,44.444-30.553,64.238
		c-7.043,11.803-13.511,22.032-19.418,30.693c-5.899,8.658-10.848,15.037-14.842,19.126c-4,4.093-7.61,7.372-10.852,9.849
		c-3.237,2.478-5.708,3.525-7.419,3.142c-1.715-0.383-3.33-0.763-4.859-1.143c-2.663-1.714-4.805-4.045-6.42-6.995
		c-1.622-2.95-2.714-6.663-3.285-11.136c-0.568-4.476-0.904-8.326-1-11.563c-0.089-3.233-0.048-7.806,0.145-13.706
		c0.198-5.903,0.287-9.897,0.287-11.991c0-7.234,0.141-15.085,0.424-23.555c0.288-8.47,0.521-15.181,0.716-20.125
		c0.194-4.949,0.284-10.185,0.284-15.705s-0.336-9.849-1-12.991c-0.656-3.138-1.663-6.184-2.99-9.137
		c-1.335-2.95-3.289-5.232-5.853-6.852c-2.569-1.618-5.763-2.902-9.564-3.856c-10.089-2.283-22.936-3.518-38.547-3.71
		c-35.401-0.38-58.148,1.906-68.236,6.855c-3.997,2.091-7.614,4.948-10.848,8.562c-3.427,4.189-3.905,6.475-1.431,6.851
		c11.422,1.711,19.508,5.804,24.267,12.275l1.715,3.429c1.334,2.474,2.666,6.854,3.999,13.134c1.331,6.28,2.19,13.227,2.568,20.837
		c0.95,13.897,0.95,25.793,0,35.689c-0.953,9.9-1.853,17.607-2.712,23.127c-0.859,5.52-2.143,9.993-3.855,13.418
		c-1.715,3.426-2.856,5.52-3.428,6.28c-0.571,0.76-1.047,1.239-1.425,1.427c-2.474,0.948-5.047,1.431-7.71,1.431
		c-2.667,0-5.901-1.334-9.707-4c-3.805-2.666-7.754-6.328-11.847-10.992c-4.093-4.665-8.709-11.184-13.85-19.558
		c-5.137-8.374-10.467-18.271-15.987-29.691l-4.567-8.282c-2.855-5.328-6.755-13.086-11.704-23.267
		c-4.952-10.185-9.329-20.037-13.134-29.554c-1.521-3.997-3.806-7.04-6.851-9.134l-1.429-0.859c-0.95-0.76-2.475-1.567-4.567-2.427
		c-2.095-0.859-4.281-1.475-6.567-1.854l-78.229,0.568c-7.994,0-13.418,1.811-16.274,5.428l-1.143,1.711
		C0.288,140.146,0,141.668,0,143.763c0,2.094,0.571,4.664,1.714,7.707c11.42,26.84,23.839,52.725,37.257,77.659
		c13.418,24.934,25.078,45.019,34.973,60.237c9.897,15.229,19.985,29.602,30.264,43.112c10.279,13.515,17.083,22.176,20.412,25.981
		c3.333,3.812,5.951,6.662,7.854,8.565l7.139,6.851c4.568,4.569,11.276,10.041,20.127,16.416
		c8.853,6.379,18.654,12.659,29.408,18.85c10.756,6.181,23.269,11.225,37.546,15.126c14.275,3.905,28.169,5.472,41.684,4.716h32.834
		c6.659-0.575,11.704-2.669,15.133-6.283l1.136-1.431c0.764-1.136,1.479-2.901,2.139-5.276c0.668-2.379,1-5,1-7.851
		c-0.195-8.183,0.428-15.558,1.852-22.124c1.423-6.564,3.045-11.513,4.859-14.846c1.813-3.33,3.859-6.14,6.136-8.418
		c2.282-2.283,3.908-3.666,4.862-4.142c0.948-0.479,1.705-0.804,2.276-0.999c4.568-1.522,9.944-0.048,16.136,4.429
		c6.187,4.473,11.99,9.996,17.418,16.56c5.425,6.57,11.943,13.941,19.555,22.124c7.617,8.186,14.277,14.271,19.985,18.274
		l5.708,3.426c3.812,2.286,8.761,4.38,14.853,6.283c6.081,1.902,11.409,2.378,15.984,1.427l73.087-1.14
		c7.229,0,12.854-1.197,16.844-3.572c3.998-2.379,6.373-5,7.139-7.851c0.764-2.854,0.805-6.092,0.145-9.712
		C546.782,404.25,546.115,401.725,545.451,400.298z"/>
</g>
<g>
</g>
<g>
</g>
<g>
</g>
<g>
</g>
<g>
</g>
<g>
</g>
<g>
</g>
<g>
</g>
<g>
</g>
<g>
</g>
<g>
</g>
<g>
</g>
<g>
</g>
<g>
</g>
<g>
</g>
</symbol></svg>